<?xml version="1.0" standalone="no"?>
<!DOCTYPE svg PUBLIC "-//W3C//DTD SVG 1.1//EN" "http://www.w3.org/Graphics/SVG/1.1/DTD/svg11.dtd">
<svg xmlns:inkscape="http://www.inkscape.org/namespaces/inkscape" xmlns:sodipodi="http://sodipodi.sourceforge.net/DTD/sodipodi-0.dtd" xmlns="http://www.w3.org/2000/svg" xmlns:svg="http://www.w3.org/2000/svg" id="Layer_1" data-name="Layer 1" viewBox="0 0 149.39817 97.799652" version="1.1" sodipodi:docname="nuha-logo.svg" inkscape:export-filename="nuha-logo-ping.svg" inkscape:export-xdpi="96" inkscape:export-ydpi="96" inkscape:version="1.2.1 (9c6d41e410, 2022-07-14, custom)" width="149.39816284179688" height="97.79965209960938">
  <defs id="defs11"/>
  <sodipodi:namedview id="namedview9" pagecolor="#ffffff" bordercolor="#666666" borderopacity="1.0" inkscape:showpageshadow="2" inkscape:pageopacity="0.0" inkscape:pagecheckerboard="0" inkscape:deskcolor="#d1d1d1" showgrid="false" inkscape:zoom="1.0240832" inkscape:cx="-41.012295" inkscape:cy="25.388563" inkscape:window-width="1920" inkscape:window-height="1016" inkscape:window-x="1920" inkscape:window-y="38" inkscape:window-maximized="1" inkscape:current-layer="Layer_1"/>
  <path d="m 133.7506,21.786403 v 19.7912 a 12.565,12.565 0 0 1 -12.56326,12.56394 h -0.0165 l -20.4667,-0.0261 h -0.01 a 7.82346,7.82346 0 0 0 -6.16356,3.00472 l -19.45276,24.8787 a 0.35372,0.35372 0 0 1 -0.31132,0.1524 0.44387,0.44387 0 0 1 -0.31578,-0.15515 l -19.012,-24.81554 a 7.8231,7.8231 0 0 0 -6.21092,-3.06582 h -0.01 l -20.99048,0.0268 h -0.0165 A 12.56326,12.56326 0 0 1 15.64825,41.577613 v -19.7912 H -5e-5 v 19.7912 a 28.21156,28.21156 0 0 0 28.21018,28.21156 h 0.0371 l 17.12217,-0.0213 16.65948,21.74424 a 15.9374,15.9374 0 0 0 12.65731,6.28746 h 0.0817 a 15.93542,15.93542 0 0 0 12.63706,-6.16184 l 17.09951,-21.86986 16.64575,0.0213 h 0.0371 a 28.211,28.211 0 0 0 28.21087,-28.21156 v -19.7912 z" style="fill:#e53076" id="path3104" inkscape:export-filename="./nuha-logo-pink.svg" inkscape:export-xdpi="96" inkscape:export-ydpi="96"/>
  <path id="path3107" style="fill:#e53076" d="M 123.76428,9.1484322 A 10.89336,10.89336 0 0 1 114.75651,21.646055 10.89336,10.89336 0 0 1 102.25889,12.63828 10.89336,10.89336 0 0 1 111.26666,0.14066118 10.89336,10.89336 0 0 1 123.76428,9.1484322 Z"/>
  <ellipse style="fill:#ffffff;fill-opacity:0;stroke-width:0.0415748" id="path3088" cx="76.457733" cy="38.429073" rx="114.25414" ry="55.821236"/>
  <ellipse style="fill:#ffffff;fill-opacity:0;stroke-width:0.0415748" id="path3090" cx="95.97438" cy="58.632488" rx="108.75793" ry="81.767448"/>
  <ellipse style="fill:#ffffff;fill-opacity:0;stroke-width:0.0415748" id="path3092" cx="103.90979" cy="36.783581" rx="125.30719" ry="94.094681"/>
  <ellipse style="fill:#ffffff;fill-opacity:0;stroke-width:0.0415748" id="path3094" cx="111.99649" cy="47.779644" rx="81.749954" ry="92.628273"/>
  <ellipse style="fill:#ffffff;fill-opacity:0;stroke-width:0.0415748" id="path3096" cx="87.914246" cy="69.936417" rx="163.82687" ry="88.14415"/>
</svg>