<svg version="1.1" id="Layer_1" xmlns="http://www.w3.org/2000/svg" xmlns:xlink="http://www.w3.org/1999/xlink" x="0px" y="0px"
	 width="100%" viewBox="0 0 164 121" enable-background="new 0 0 164 121" xml:space="preserve">
<path fill="#FCF0F7" opacity="1.000000" stroke="none" 
	d="
M100.000000,122.000000 
	C66.695488,122.000000 33.890980,122.000000 1.043234,122.000000 
	C1.043234,81.730934 1.043234,41.461815 1.043234,1.096345 
	C55.554298,1.096345 110.108818,1.096345 164.831665,1.096345 
	C164.831665,41.332771 164.831665,81.666321 164.831665,122.000000 
	C143.462204,122.000000 121.981102,122.000000 100.000000,122.000000 
M116.531868,69.619621 
	C112.212906,69.742561 107.882362,70.113884 103.578476,69.913284 
	C99.843330,69.739189 97.322418,71.034958 95.153893,74.042519 
	C91.794922,78.701134 88.086578,83.107841 84.270454,87.945793 
	C82.853806,86.266624 81.707794,85.263565 80.999496,84.012657 
	C75.154938,73.690811 67.435486,67.590324 54.517994,69.761887 
	C49.148689,70.664520 46.046665,66.654854 45.889923,61.068859 
	C45.779716,57.141350 45.868629,53.208252 45.868629,49.358894 
	C42.081867,49.358894 39.025604,49.358894 35.778122,49.358894 
	C35.778122,54.375526 35.522732,59.040970 35.832603,63.668560 
	C36.432026,72.620300 44.090042,79.761314 53.019886,79.999321 
	C55.682945,80.070297 58.425518,79.624878 60.991127,80.129929 
	C63.170349,80.558929 65.652969,81.545052 67.111900,83.112518 
	C70.501045,86.753784 73.149940,91.076851 76.473259,94.788338 
	C80.795731,99.615685 87.435524,99.500160 91.878281,94.821213 
	C93.135559,93.497101 94.391968,92.106796 95.326935,90.553169 
	C99.713753,83.263702 105.142700,79.267426 114.597664,79.911148 
	C124.191429,80.564316 131.140762,73.622658 132.264450,64.332481 
	C132.854568,59.453552 132.368668,54.444473 132.368668,49.253616 
	C129.026474,49.253616 125.959541,49.253616 122.347839,49.253616 
	C122.347839,53.301971 122.388962,57.097919 122.336197,60.892563 
	C122.284126,64.637680 121.133011,67.776665 116.531868,69.619621 
M106.118629,34.072861 
	C105.087448,34.874416 103.951942,35.573368 103.044197,36.496323 
	C100.042297,39.548523 100.073112,44.445671 103.023415,47.519829 
	C106.230843,50.861885 110.603012,51.072197 114.048126,48.183823 
	C116.964096,45.739075 117.894264,42.551865 116.568542,39.245068 
	C114.915054,35.120712 111.474129,33.316948 106.118629,34.072861 
z"/>
<path fill="#E63579" opacity="1.000000" stroke="none" 
	d="
M116.915298,69.447258 
	C121.133011,67.776665 122.284126,64.637680 122.336197,60.892563 
	C122.388962,57.097919 122.347839,53.301971 122.347839,49.253616 
	C125.959541,49.253616 129.026474,49.253616 132.368668,49.253616 
	C132.368668,54.444473 132.854568,59.453552 132.264450,64.332481 
	C131.140762,73.622658 124.191429,80.564316 114.597664,79.911148 
	C105.142700,79.267426 99.713753,83.263702 95.326935,90.553169 
	C94.391968,92.106796 93.135559,93.497101 91.878281,94.821213 
	C87.435524,99.500160 80.795731,99.615685 76.473259,94.788338 
	C73.149940,91.076851 70.501045,86.753784 67.111900,83.112518 
	C65.652969,81.545052 63.170349,80.558929 60.991127,80.129929 
	C58.425518,79.624878 55.682945,80.070297 53.019886,79.999321 
	C44.090042,79.761314 36.432026,72.620300 35.832603,63.668560 
	C35.522732,59.040970 35.778122,54.375526 35.778122,49.358894 
	C39.025604,49.358894 42.081867,49.358894 45.868629,49.358894 
	C45.868629,53.208252 45.779716,57.141350 45.889923,61.068859 
	C46.046665,66.654854 49.148689,70.664520 54.517994,69.761887 
	C67.435486,67.590324 75.154938,73.690811 80.999496,84.012657 
	C81.707794,85.263565 82.853806,86.266624 84.270454,87.945793 
	C88.086578,83.107841 91.794922,78.701134 95.153893,74.042519 
	C97.322418,71.034958 99.843330,69.739189 103.578476,69.913284 
	C107.882362,70.113884 112.212906,69.742561 116.915298,69.447258 
z"/>
<path fill="#E63478" opacity="1.000000" stroke="none" 
	d="
M106.527435,34.039764 
	C111.474129,33.316948 114.915054,35.120712 116.568542,39.245068 
	C117.894264,42.551865 116.964096,45.739075 114.048126,48.183823 
	C110.603012,51.072197 106.230843,50.861885 103.023415,47.519829 
	C100.073112,44.445671 100.042297,39.548523 103.044197,36.496323 
	C103.951942,35.573368 105.087448,34.874416 106.527435,34.039764 
z"/>
</svg>