<svg viewBox="89.60000000000002 76.80000000000007 844.8000000000002 614.4000000000001" xmlns="http://www.w3.org/2000/svg" overflow="visible" xmlns:xlink="http://www.w3.org/1999/xlink" xmlns:blush="http://design.blush" width="844.8000000000002px" height="614.4000000000001px"><g id="Master/Doodles/Loving" stroke="none" stroke-width="1" fill="none" fill-rule="evenodd" blush:i="0"><path d="M448.995191,335.47311 C439.894531,342.070142 441.34344,355.050637 444.082634,364.481879 C448.116849,378.368566 456.152135,391.223987 465.317901,402.304782 C481.579056,421.962545 509.184075,444.03564 534.629936,426.77787 C557.290437,411.408002 571.584202,380.394519 576.518066,354.271878 C578.042734,346.198744 580.074047,334.170459 572.908817,328.100859 C562.316634,319.129793 543.632345,320.761647 530.845492,321.916806 C522.424304,322.676686 514.299053,325.258389 505.9773,324.046593 C486.641949,321.228902 465.122583,323.781107 448.995191,335.47311" id="Accent" fill="#FF5678" blush:i="0.0"/><path d="M423.801517,221.162398 C430.110561,220.464738 436.531098,220.281198 442.882949,220.383875 L444.763463,220.417218 C449.11596,220.448052 462.666147,220.055286 463.981618,224.932977 C464.891758,228.312068 460.341055,227.384799 458.07874,227.472322 C454.662009,227.604789 451.237113,227.633119 447.827073,227.880589 L446.366605,228.001007 C442.678639,228.344002 434.624843,228.016383 432.148028,231.304403 C429.48763,234.836857 434.556307,241.029251 436.401561,244.220985 L436.497268,244.389068 C443.601816,257.084611 448.028086,270.719251 460.754648,279.147464 C472.780875,287.111254 488.510189,290.561893 502.372359,294.233877 L505.589003,295.089723 C510.198904,296.340857 511.362735,297.032042 513.161546,302.111305 L513.372152,302.717129 C515.214323,308.109161 515.892367,304.323763 517.268838,300.744825 L517.32913,300.589378 C519.372206,295.374672 523.322074,297.718865 528.384731,298.084332 C536.084326,298.641585 544.543221,297.701822 552.192709,296.434258 L553.106662,296.280652 C567.64758,293.801626 583.065457,290.450921 594.586794,280.675565 C606.388995,270.663662 613.836031,256.073368 618.412806,241.532748 L617.452011,241.417419 C613.882899,241.006839 609.846759,240.688271 606.701856,239.035982 C601.863179,236.494271 604.344734,232.620794 608.78641,231.244083 C615.856591,229.053647 624.820527,230.17252 631.971294,231.080865 C640.939971,232.220337 649.947484,232.958302 658.965536,233.569885 L661.425245,233.733753 C694.373994,235.895804 725.824803,239.821322 757.069408,251.099941 C786.534025,261.735149 814.349012,276.909718 839.467945,295.581652 C864.911589,314.496048 885.982292,337.30521 904.143626,363.200144 C913.786613,376.950692 920.602002,391.05488 926.551098,406.722652 C929.237672,413.800175 931.110097,420.701469 932.150596,428.210692 C933.18611,435.69051 931.841974,443.754695 933.497372,451.109808 L933.686459,451.895083 C935.849228,460.310286 931.563982,471.604281 929.078872,479.618535 C925.894565,489.883545 920.855609,499.557185 914.600763,508.289362 C891.604306,540.392505 851.065127,556.568855 812.821446,560.631571 C801.99812,561.781195 791.146352,561.983444 780.272068,562.056774 C776.251096,562.083977 772.142427,562.521591 768.140415,562.002368 C764.204768,561.491423 762.435446,559.599038 759.26536,557.836753 C755.634278,555.818997 750.294312,555.568256 746.270969,554.737972 L741.420983,553.748549 C737.652554,552.978254 733.896494,552.178402 730.177598,551.154266 C725.959309,549.99311 721.782758,548.889003 717.527269,547.937025 L715.698304,547.538626 C711.672591,546.68587 707.184697,544.890469 703.02507,545.971494 C712.226022,560.409215 722.651162,575.048002 734.862215,587.129703 C745.67606,597.831144 758.895615,606.66622 768.532677,618.511373 C770.920611,621.445753 774.317047,629.024758 778.663916,629.269586 C780.800613,629.390225 781.95251,626.753895 784.207715,627.436337 C786.659644,628.179098 786.656088,632.001718 786.08488,633.858621 C782.275409,646.248059 759.427859,649.03001 748.877634,648.339609 L748.561727,648.317631 C740.182034,647.699058 731.413635,647.463692 723.172596,645.804307 C715.666306,644.292763 708.643529,640.575408 700.936961,640.03253 C685.928809,638.974562 672.813513,651.652549 662.204084,660.885818 L659.889924,662.882274 C649.322957,671.966243 635.896875,683.212971 621.56156,683.805779 C604.473908,684.513058 587.460915,676.386444 571.705291,670.883149 C556.576449,665.600405 540.944785,661.297648 525.482593,656.932001 L520.03348,655.386875 C503.748126,650.743434 487.128579,645.280352 470.066998,649.015449 C456.134025,652.065738 441.045601,660.538895 431.906272,671.597525 L431.401108,672.218437 C427.468811,677.122592 424.067362,682.901585 417.504008,684.38887 C411.488547,685.751388 405.765801,683.799865 401.571807,679.463936 C392.498119,670.081974 387.94231,656.935857 383.105381,644.984501 L382.24791,642.88885 C375.767899,627.249464 371.892691,611.333317 368.884961,594.707525 C367.21874,585.492789 365.592811,576.267408 364.234711,567.002997 C363.61847,562.794804 363.054372,558.578332 362.574415,554.352398 C362.300662,551.936058 362.779434,547.492499 361.654794,545.18852 C359.220358,540.207887 350.658687,546.863419 346.793924,548.673167 L343.832774,550.001692 C337.291294,552.926234 330.790303,555.755129 323.952694,558.015347 C316.395446,560.512114 308.909302,563.557672 301.177847,565.435865 C298.396467,566.11121 295.273784,566.594951 292.698608,567.933814 C290.553615,569.050322 289.790424,571.670093 288.035322,572.58317 C285.562063,573.868809 283.029549,571.448921 280.392748,571.233662 C276.909801,570.949804 273.051185,572.074591 269.660674,572.780687 C261.885371,574.397494 254.321012,576.54417 246.348987,577.019631 C230.044188,577.991253 213.801036,574.055731 198.429617,568.949114 L197.560473,568.658835 C167.932315,558.710799 137.367945,546.393733 123.284467,516.410063 C96.1840826,458.717134 110.150238,383.52555 154.232803,338.341291 C200.156981,291.269378 261.103219,258.594972 324.030909,240.863317 C356.465334,231.723093 390.283931,224.869109 423.801517,221.162398 Z M436.125153,412.066276 C419.137047,417.400439 402.338553,423.653591 387.109104,432.992515 C374.479052,440.737991 362.039889,449.043296 349.717246,457.36285 L339.304724,464.400664 C327.540134,472.334769 314.80276,480.665867 301.605661,485.709652 C297.028886,487.458926 289.630438,488.819078 286.980602,493.467251 C284.606889,497.629317 285.938918,504.095362 285.996987,508.644185 C286.1286,519.066778 284.991055,529.620332 284.483304,540.072137 L284.395945,542.030601 C284.285733,544.73553 283.071027,551.889931 285.460146,553.923063 C287.675058,555.808352 294.124258,553.277286 296.362872,552.650434 L298.820083,551.959162 C325.033816,544.550397 351.321229,535.957297 374.085087,520.631266 C387.221687,511.785545 398.571187,500.573159 410.419606,490.143748 C416.864065,484.470139 424.055124,479.394997 430.029107,473.218723 C432.203727,470.969149 433.983715,468.483027 436.474751,466.566987 C438.849649,464.738469 441.664212,463.799373 443.645664,461.417332 C445.340327,459.380652 447.407104,457.540307 448.229549,454.93118 C443.21311,454.93118 428.640195,463.662175 426.120717,456.180154 C423.524209,448.469865 437.796114,440.142185 442.0067,435.50584 C437.108768,436.24387 432.284312,437.378119 427.602065,438.993743 C424.767357,439.97187 420.145549,442.996139 417.019311,442.90152 C410.570111,442.70755 412.965156,435.141555 415.300946,431.797946 C417.940354,428.019798 421.562714,424.89036 425.181433,421.957881 L427.879374,419.788393 C428.806106,419.042083 436.912045,413.719748 436.125153,412.066276 Z M605.685169,405.880553 L604.467515,404.761837 C599.308124,400.047858 592.326324,394.57844 584.934327,396.293241 C587.93916,403.698514 593.963933,410.15577 599.646778,415.715004 L600.132964,416.189312 C602.504306,418.49684 610.108958,423.737565 608.501991,427.909093 C605.891262,434.683835 594.675675,427.576743 591.403672,425.616941 C584.038407,421.205317 576.161187,418.035571 567.698539,416.395109 C572.627282,422.259139 577.929325,427.846408 584.129658,432.375124 L586.183978,433.846411 C589.596411,436.335813 593.647938,439.871003 589.421035,443.28118 C580.383624,450.572779 564.285512,436.132692 555.566886,433.835809 C554.476613,438.836439 557.152522,441.447931 560.641394,444.792723 C564.520157,448.508895 569.272324,447.999134 572.75053,452.391835 C579.690352,461.155946 586.943035,469.385459 595.006312,477.199829 C612.304909,493.965185 631.673839,504.761246 653.657053,514.197154 C676.684768,524.082557 701.51961,530.394762 725.93265,535.901163 L728.004943,536.369897 C733.105893,537.57512 760.294897,544.654075 760.438588,542.21156 L760.736935,537.101709 C761.740757,519.445637 762.273926,501.281726 755.375931,484.636906 C752.627712,478.004895 749.450027,475.776818 742.386556,475.469483 L742.017721,475.455286 C732.596344,475.139494 723.542341,474.282007 714.259618,472.420373 C695.338648,468.626139 676.312206,463.217464 658.560909,455.574591 C650.792717,452.229799 643.224803,448.186007 636.754272,442.693357 L635.875584,441.93946 C632.794625,439.264495 629.690944,436.205765 627.684863,432.68855 C625.733038,429.264515 625.189087,425.515225 622.689756,422.340748 C618.038937,416.431963 611.326104,411.028944 605.685169,405.880553 L605.685169,405.880553 Z M357.055503,332.356621 C354.564072,329.505602 347.287081,332.829813 344.45258,333.896589 L344.296943,333.954505 C330.032149,339.197596 314.795589,343.440088 301.304651,350.42654 C283.57113,359.610525 266.644648,370.489378 250.962499,382.828916 C235.262573,395.180281 220.776169,408.820835 207.8754,424.079378 L207.21074,424.867733 C196.7667,437.28988 184.970565,453.04695 186.881727,470.16252 C188.527801,484.916032 202.895698,490.293956 215.879423,491.926139 C225.006447,493.074094 233.269383,491.673893 242.14187,489.743468 L245.700322,488.96676 C254.402471,487.079942 263.037268,485.269334 271.480955,482.299809 C282.191698,478.531596 292.081182,473.141845 302.238493,468.155408 C311.486849,463.614865 321.180794,460.072555 330.335529,455.326215 L330.921759,455.026288 C336.153533,452.380714 345.176096,448.525585 347.205127,442.809266 C348.301325,439.721129 346.655251,435.692713 346.471563,432.530063 C346.160757,427.200474 346.637622,421.645249 346.966588,416.28846 L347.034476,415.143769 C348.199408,394.668154 350.730737,374.285977 352.834252,353.897885 L353.12841,350.958238 C353.488281,347.472829 353.952451,344.127827 355.379801,340.80021 L355.521648,340.484975 C356.564076,338.258556 359.011462,334.596293 357.055503,332.356621 Z M551.598057,489.391525 C555.229139,488.264373 550.782723,474.150723 547.114903,476.064398 C543.268137,478.070327 547.58775,490.638134 551.598057,489.391525 Z M488.481957,474.811688 L488.609928,474.364799 C490.129199,469.177296 484.559328,471.907063 482.837408,474.071479 C479.821382,477.86453 480.128318,484.673571 483.237965,488.363723 C486.528263,484.620458 487.181608,479.447546 488.481957,474.811688 L488.481957,474.811688 Z M690.274806,348.347281 L688.747508,347.902373 C684.179893,346.593456 681.289346,346.157493 678.953747,351.373916 C676.833119,356.106394 676.384602,361.669463 675.62237,366.76871 L675.525314,367.403606 C674.235948,375.640215 673.240481,383.919403 671.914378,392.148916 L671.596987,394.082286 C668.957823,409.900716 664.900878,428.948754 670.980536,444.260489 C673.338219,450.195941 681.481556,451.231622 687.113575,453.09767 L687.41284,453.198464 C695.948964,456.121017 704.724473,458.553916 713.559236,460.390713 C729.946507,463.797007 746.694042,465.055444 763.40958,465.193824 C791.245899,465.423276 822.587681,461.728393 841.022768,438.343236 C846.829655,430.975941 839.722737,422.138499 834.96109,416.477901 C828.797494,409.150819 822.181199,402.910677 814.503073,397.161373 C799.348284,385.81652 782.867391,377.763236 765.876915,369.604687 C748.694456,361.352703 732.199342,355.531251 713.292593,352.64418 C705.545733,351.461439 697.809537,350.54718 690.274806,348.347281 Z M541.152771,329.888241 C530.96153,329.728698 520.654251,336.264322 514.278438,343.802753 L513.629102,344.581351 C510.341403,348.495431 508.981836,349.005246 505.61581,344.70089 L505.03294,343.961019 C502.192102,340.38667 498.990187,336.878164 494.627758,335.230682 C486.360648,332.109428 475.127285,334.181591 467.399385,337.915505 C458.890519,342.027895 454.204717,350.945763 452.822915,360.009109 C449.562763,381.393068 470.927365,404.682423 488.390688,414.186931 C493.441494,416.934439 499.078915,418.178682 503.982771,421.249078 L504.953477,421.851958 C508.711134,424.15422 511.990419,425.666895 516.266114,423.001901 C520.611799,420.292241 525.103248,416.716814 528.997417,413.366109 C533.422502,409.557682 538.923638,407.072743 543.15674,403.111743 L544.381476,401.958254 C552.093909,394.641235 558.943709,387.07129 563.65979,377.383576 C565.312975,373.989109 566.596415,370.924626 566.998157,367.213185 L567.007995,367.051648 C567.049333,365.849146 566.819403,360.282194 566.822766,360.279956 C572.160001,355.971395 567.536838,346.29759 564.349135,340.600263 L563.726154,339.502743 C562.944002,338.141408 561.589457,335.457769 560.232542,334.599098 C559.694516,334.258469 558.422926,335.016606 557.64907,334.652322 C557.018608,334.355454 556.669009,333.479043 556.040918,333.189271 C551.407259,331.054423 546.297199,329.96985 541.152771,329.888241 Z M415.100668,397.034819 C418.913067,390.685865 406.688978,390.800591 406.123695,396.309799 C405.464791,402.743911 413.030335,400.48251 415.100668,397.034819 Z M616.945678,391.183799 L616.900013,391.44953 C616.585405,393.481492 616.323348,399.46164 619.405902,396.158408 C621.771319,393.622611 616.923162,391.304439 616.945678,391.183799 Z M409.595976,350.434819 C407.312329,348.775434 403.475044,349.473251 400.912903,349.824525 C396.602771,350.418261 395.98416,355.716941 399.640129,357.634164 C401.786306,358.760134 406.870295,358.420687 409.042545,357.179992 C411.793113,355.610494 412.57408,352.599236 409.595976,350.434819 Z M184.94637,270.850256 C183.093926,276.832615 173.717926,280.80041 169.04237,284.436769 C152.688,297.159897 136.706963,310.406718 121.921778,324.927385 C114.54286,332.174426 108.888686,340.88165 102.548558,348.99283 L101.549698,350.264266 C99.8923497,352.423827 97.1360276,356.570694 94.0995556,356.160205 C90.6056296,355.68959 89.8992593,349.671846 90.0106667,347.043949 C90.3922963,338.082205 98.5771852,329.427128 104.414222,323.256051 C110.980148,316.317128 118,309.555128 125.169185,303.236615 C133.062519,296.281179 141.627852,290.302359 150.356741,284.448564 C158.928,278.700923 167.146074,272.06041 176.059852,266.854154 L176.353696,266.687531 C180.574643,264.363498 187.178878,263.638709 184.94637,270.850256 Z M636.980622,352.491606 C637.039876,347.403454 626.924042,345.363225 626.835162,351.305317 C626.762872,356.133266 636.924923,357.292352 636.980622,352.491606 Z M643.050596,309.523804 C643.531738,301.864373 625.856286,307.977961 624.850154,312.373027 C622.717012,321.716682 642.80884,313.364164 643.050596,309.523804 Z M412.292031,299.905753 C404.917077,299.837862 414.619375,308.129564 416.992594,309.173049 L417.064344,309.203281 C419.78884,310.299682 423.564502,310.563434 422.646065,306.578779 C421.658895,302.298439 415.619733,301.194941 412.292031,299.905753 Z M756.622255,214.036121 C763.448733,214.251349 770.110017,216.490427 776.547871,218.568976 C790.709486,223.142261 804.197247,229.486118 817.497233,236.116548 C840.814696,247.738827 863.253891,261.801142 883.82246,277.789802 C887.815155,280.892507 891.901102,283.44873 896.207806,285.985911 L897.762795,286.894042 C900.703884,288.585797 904.53458,290.673501 905.617513,294.024605 C908.545863,303.092694 893.765064,293.99131 891.667443,292.689244 L884.291358,288.119839 C841.999804,261.971879 799.57172,236.858678 751.73771,221.828304 C749.100531,220.9995 748.280498,218.647457 749.663858,216.315629 C751.163687,213.788788 754.086095,213.956452 756.622255,214.036121 Z M182.954686,233.014682 C182.647567,235.694487 179.692413,236.364998 177.590417,237.212438 L177.401774,237.290026 C169.531581,240.595864 161.465109,243.415164 153.616327,246.775723 C139.048856,253.012682 125.670955,262.064183 110.465874,266.797515 C106.991141,267.881221 106.478437,264.374344 107.40868,261.98805 C108.444795,259.324584 111.55671,257.454567 113.807376,255.914064 C120.300048,251.46623 127.663484,248.268644 134.873466,245.179309 C142.021591,242.113766 149.381459,239.795278 156.710398,237.225789 C163.521875,234.837115 171.427755,230.391661 178.74242,230.063338 L179.837669,230.01126 C181.799745,229.938346 183.281456,230.141307 182.954686,233.014682 Z M486.836943,193.339437 L487.410006,192.022509 C488.88872,188.561583 494.672809,173.164806 499.02623,174.035513 C503.195637,174.868492 492.691408,202.223418 491.636808,205.247158 L491.607768,205.331287 C485.395275,223.554756 482.469338,242.746062 482.469338,262 C478.154781,258.115651 475.536776,257.156086 475.121127,250.817283 C474.600232,242.874302 475.839289,234.915979 477.310811,227.133312 L477.481547,226.236103 C479.625204,215.035462 482.341069,203.831509 486.836943,193.339437 L486.836943,193.339437 Z M574.988874,82.0083326 C584.448024,82.14222 593.348984,84.7900406 602.170695,87.9257241 L608.295713,90.1211944 C615.142945,92.5901269 622.034303,95.3214303 627.498237,100.200425 C639.47574,110.896845 642.595671,128.60764 644.555992,143.760209 C647.000767,162.66832 638.864546,178.532167 632.017044,195.638376 C625.612538,211.637365 613.857719,224.598016 599.885545,234.474096 C592.809437,239.475005 585.013887,242.55951 576.856254,245.233188 L576.011084,245.508372 C567.412914,248.289465 559.085991,252.014185 549.887288,252.00004 C535.917483,251.979807 518.032958,245.344778 512.08211,231.58157 C509.409314,225.398772 511.941649,224.221131 517.21706,227.462233 L517.432425,227.596048 C525.297399,232.537052 532.879281,237.869258 542.069693,240.061176 C559.893809,244.313427 581.241765,237.725817 596.871033,229.034013 C612.494377,220.34458 622.982984,207.291463 629.99276,191.0376 C637.065315,174.640296 639.813318,158.482456 637.085451,140.804853 C634.774523,125.824176 630.176355,112.140394 616.676791,104.008128 C587.533745,86.4549988 548.269283,87.8692544 522.352771,110.681091 C519.390574,113.28713 516.457167,115.83472 513.442188,118.339639 L510.998856,120.349277 C508.833924,122.145217 506.581645,124.302427 506.890516,127.295334 L506.915178,127.47726 C507.418661,130.54251 513.025733,140.875618 505.955959,137.614776 C500.105792,134.915481 496.926637,129.638991 489.839868,128.985802 C482.297074,128.289936 473.299733,134.084472 471.043291,141.377431 C468.891083,148.336091 472.728812,157.856532 478.740068,161.847981 C482.113886,164.087948 485.794137,163.984443 489.600974,163.871233 L490.786271,163.838371 C492.883992,163.788582 498.724683,163.106941 500.112899,165.32494 C502.569519,169.247632 493.902649,173.370667 491.106082,174.238425 C484.300036,176.349732 476.256205,173.865005 472.343854,167.789514 C468.366357,161.61326 465.644413,154.464927 465.095996,147.106767 C464.572454,140.056827 466.172692,132.919163 470.331416,127.130555 C474.755464,120.974453 483.772941,114.072696 491.857045,116.211269 C495.365487,117.139485 498.184559,120.764626 501.627854,121.453379 C503.801382,121.887258 502.88696,122.197849 504.687376,120.586807 C505.830403,119.564939 506.910653,117.67887 507.966028,116.467328 L511.871592,111.947725 C516.669617,106.400897 521.623552,100.872836 527.457898,96.4923015 C540.772683,86.4953044 558.470059,81.7736112 574.988874,82.0083326 Z M543.491613,224.107417 C545.184748,226.285568 549.166772,227.980223 548.994589,231.193057 C548.71106,236.497013 541.481661,235.513098 539.071096,232.746289 C536.327643,229.59631 536.614615,223.758091 538.168855,220.112527 C539.743758,216.421032 542.636436,223.006254 543.491613,224.107417 Z M589.530055,195 C593.430328,201.077813 588.677095,207.638447 585.59369,213.017785 C582.645025,218.161102 579.906894,223.975339 576.474605,228.810752 C570.776981,236.839024 558.3808,228.15421 558.012668,219.903097 C557.738868,213.759916 561.963694,216.192584 564.837446,218.500866 L565.47069,219.015318 C568.163648,221.173398 569.574045,221.609531 572.532225,219.076428 C578.765203,213.735429 581.565893,204.80501 585.875202,198.043099 C586.729365,196.702458 588.277684,195.896157 589.530055,195 Z M600.647927,196.954326 C601.654095,199.893528 599.543971,207.681747 605.40896,206.903046 C608.650139,206.473125 609.341732,201.82272 611.045383,199.793011 C616.774881,192.969994 615.018212,205.87487 613.520743,209.104722 C610.220655,216.223234 600.984887,221.127959 596.404116,212.09721 C594.759212,208.853619 594.709081,204.789271 595.487014,201.262349 L595.573498,200.886583 C596.04477,198.919849 598.792291,191.52643 600.647927,196.954326 Z M772.798868,185.015502 C777.41304,185.361249 781.87297,187.539687 786.248662,188.853758 C799.165936,192.732211 811.171823,196.961288 823.233851,202.860432 L824.765185,203.619729 C826.994397,204.761494 834.395686,208.917031 829.170304,210.796992 C825.405643,212.150777 816.61392,206.341999 813.381983,204.9485 C799.178783,198.824345 783.917254,195.25124 769.047259,191.069574 C762.087441,189.1119 768.662843,184.705966 772.798868,185.015502 Z M548.347183,183.033714 C547.827796,186.463188 544.604094,193.295757 548.539764,195.74915 C551.55383,197.628811 556.513086,194.319778 559.506619,192.139195 L560.999187,191.037478 C563.89715,188.83896 569.75909,183.639144 569.996869,190.652903 C570.122922,194.355776 566.416016,198.798505 563.771227,200.931734 L563.402893,201.22137 C557.632475,205.649103 546.31421,209.37959 542.244093,200.998885 C539.978632,196.334319 541.218158,189.69361 542.715626,184.993071 L542.797193,184.751712 C544.162771,180.921811 549.574599,174.922787 548.347183,183.033714 Z M621.375635,163.118647 L623.418874,165.488011 C625.958316,168.47919 629.704722,173.405731 627.139702,176.697155 C623.72642,181.076212 618.208947,173.209466 615.932549,170.819867 L615.840837,170.724793 C613.84386,168.682738 609.643045,162.867731 611.434314,159.783352 C614.009545,155.35097 618.830748,160.225666 621.375635,163.118647 L621.375635,163.118647 Z M586.26514,152.774961 C593.696254,157.61622 584.097902,161.11576 579.756875,161.610048 L578.726312,161.712324 C573.701898,162.182403 567.564488,162.356944 563.083263,159.962894 C556.346287,156.363603 558.591554,150.926804 565.121527,149.625286 C571.817338,148.291821 580.439679,148.979259 586.26514,152.774961 Z M488.680132,137.207532 L489.87311,137.444226 C495.078283,138.504938 500.639321,140.109352 502.385247,145.697554 C504.296985,151.822931 501.620551,153.91778 496.153137,152.642355 L494.601181,152.267998 C489.466465,151.052317 482.654182,149.573443 479.940777,144.885423 C476.416843,138.79741 483.561469,136.21282 488.680132,137.207532 Z" id="Shape" fill="#000" blush:i="0.1"/></g></svg>